<svg width="233" height="77" viewBox="0 0 233 77" fill="none" xmlns="http://www.w3.org/2000/svg">
<path d="M3.31362 41.3904C1.0119 40.295 1.03873 37.0097 3.35803 35.952L48.4033 15.4091C49.4888 14.9141 50.7645 15.1093 51.6523 15.9063L74.4738 36.3945C75.8004 37.5854 75.8019 39.6634 74.4771 40.8563L50.9692 62.0227C50.0682 62.834 48.7674 63.0231 47.6726 62.5021L3.31362 41.3904Z" fill="#81F9C9"/>
<path d="M108.912 17.2V25.648H90.992V36.272H108.4V44.72H90.992V62H82.16V17.2H108.912Z" fill="black"/>
<path d="M123.22 62H114.964V17.2H123.22V62Z" fill="black"/>
<path d="M158.04 57.032C154.797 60.2747 150.787 61.896 146.008 61.896C141.229 61.896 137.219 60.2747 133.976 57.032C130.733 53.7894 129.112 49.7787 129.112 45C129.112 40.264 130.733 36.2747 133.976 33.032C137.261 29.7467 141.272 28.104 146.008 28.104C150.744 28.104 154.755 29.7467 158.04 33.032C161.325 36.3174 162.968 40.3067 162.968 45C162.968 49.736 161.325 53.7467 158.04 57.032ZM139.8 51.336C141.464 53 143.533 53.832 146.008 53.832C148.483 53.832 150.552 53 152.216 51.336C153.88 49.672 154.712 47.56 154.712 45C154.712 42.44 153.88 40.328 152.216 38.664C150.552 37 148.483 36.168 146.008 36.168C143.533 36.168 141.464 37 139.8 38.664C138.179 40.3707 137.368 42.4827 137.368 45C137.368 47.5174 138.179 49.6294 139.8 51.336Z" fill="black"/>
<path d="M184.008 61.896C179.187 61.896 175.155 60.2747 171.912 57.032C168.712 53.7894 167.112 49.7787 167.112 45C167.112 40.2214 168.712 36.2107 171.912 32.968C175.155 29.7254 179.187 28.104 184.008 28.104C187.123 28.104 189.96 28.8507 192.52 30.344C195.08 31.8373 197.021 33.8427 198.344 36.36L191.24 40.52C190.6 39.1973 189.619 38.152 188.296 37.384C187.016 36.616 185.565 36.232 183.944 36.232C181.469 36.232 179.421 37.064 177.8 38.728C176.179 40.3493 175.368 42.44 175.368 45C175.368 47.4747 176.179 49.5654 177.8 51.272C179.421 52.8934 181.469 53.704 183.944 53.704C185.608 53.704 187.08 53.3414 188.36 52.616C189.683 51.848 190.664 50.8027 191.304 49.48L198.472 53.576C197.064 56.136 195.059 58.1627 192.456 59.656C189.896 61.1493 187.08 61.896 184.008 61.896Z" fill="black"/>
<path d="M220 46L232.343 62H222.743L211 46L211.095 62H202.839V17.2H211.095L211 46L222.103 30H231.959L220 46Z" fill="black"/>
</svg>
